<svg width="100" height="103" viewBox="0 0 100 103" fill="none" xmlns="http://www.w3.org/2000/svg">
<ellipse cx="50" cy="51.5" rx="48" ry="49.5" stroke="#f7e7ce"/>
<path d="M27.9431 33.8487C32.1486 27.4839 38.7902 22.9466 46.4965 21.6417V80.5409C42.9717 79.9441 39.6697 78.671 36.7216 76.8561C35.7649 78.482 34.5014 79.8971 33.0132 81.0171C38.0992 83.4452 43.7402 84.8576 49.6879 85V18C40.8409 18.2118 32.6725 21.2337 26 26.2282C27.2367 28.3629 27.9468 30.8555 27.9468 33.518C27.9468 33.6285 27.9455 33.7388 27.9431 33.8487Z" fill="#f7e7ce"/>
<path d="M56.27 49.6609H68.836V53.1347H56.27V80.4327C59.9232 79.7298 63.3255 78.2981 66.3275 76.2906C67.1592 77.862 68.2698 79.2558 69.5914 80.4023C64.5824 83.0024 58.9946 84.6016 53.0787 84.943V18.057C60.7965 18.5024 67.9558 21.0884 74 25.2447C72.9074 26.8208 72.1186 28.6334 71.7212 30.5929C67.7212 26.1001 62.3422 22.9182 56.27 21.7499V49.6609Z" fill="#f7e7ce"/>
<path d="M56.27 80.5164V80.4327M56.27 80.4327C59.9232 79.7298 63.3255 78.2981 66.3275 76.2906C67.1592 77.862 68.2698 79.2558 69.5914 80.4023C64.5824 83.0024 58.9946 84.6016 53.0787 84.943V18.057C60.7965 18.5024 67.9558 21.0884 74 25.2447C72.9074 26.8208 72.1186 28.6334 71.7212 30.5929C67.7212 26.1001 62.3422 22.9182 56.27 21.7499V49.6609H68.836V53.1347H56.27V80.4327ZM27.9468 33.518C27.9468 30.8555 27.2367 28.3629 26 26.2282C32.6725 21.2337 40.8409 18.2118 49.6879 18V85C43.7402 84.8576 38.0992 83.4452 33.0132 81.0171C34.5014 79.8971 35.7649 78.482 36.7216 76.8561C39.6697 78.671 42.9717 79.9441 46.4965 80.5409V21.6417C38.7902 22.9466 32.1486 27.4839 27.9431 33.8487C27.9455 33.7388 27.9468 33.6285 27.9468 33.518Z" stroke="#f7e7ce" stroke-width="0.5"/>
</svg>
